# xmcd CD database file
# Copyright (C) 1993-1996 Ti Kan
#
# Track frame offsets:
# 150
# 14332
# 25710
# 39202
# 49917
# 60807
# 71310
# 84002
# 93740
# 107685
# 117645
# 131127
#
# Disc length: 1907 seconds
#
# Revision: 0
# Processed by: cddbd v1.4b41PL1 Copyright (c) Steve Scherf et al.
# Submitted via: inCDius 1.1b5
#
DISCID=9007710c
DTITLE=Kitty Wells - Greatest Hits - Volume 1
DYEAR=1900
DGENRE=
TTITLE0=It Wasn't God Who Made Honky Tonk Angels
TTITLE1=Left Left To Right
TTITLE2=I Don't Claim To Be An Angel
TTITLE3=Password
TTITLE4=A Wedding Ring Ago
TTITLE5=Dust On The Bible
TTITLE6=Thank You For The Roses
TTITLE7=Whose Shoulder Will You Cry On
TTITLE8=Lonely Street
TTITLE9=Love Makes The World Go Around
TTITLE10=Loving You Was All I Ever Needed
TTITLE11=Amigo's Guitar
EXTD=
EXTT0=
EXTT1=
EXTT2=
EXTT3=
EXTT4=
EXTT5=
EXTT6=
EXTT7=
EXTT8=
EXTT9=
EXTT10=
EXTT11=
PLAYORDER=
